<?xml version="1.0" encoding="utf-8"?>
<!-- Generator: Adobe Illustrator 25.0.1, SVG Export Plug-In . SVG Version: 6.00 Build 0)  -->
<svg version="1.1" xmlns="http://www.w3.org/2000/svg" xmlns:xlink="http://www.w3.org/1999/xlink" x="0px" y="0px"
	 viewBox="0 0 150 150" style="enable-background:new 0 0 150 150;" xml:space="preserve">
<style type="text/css">
	.st0{fill:#170045;}
	.st1{fill:#FFF517;}
	.st2{fill:#FFF517;stroke:#000000;stroke-width:0.25;stroke-miterlimit:10;}
	.st3{fill:#FFFFFF;}
	.st4{font-family:'BMHANNAPro';}
	.st5{font-size:14px;}
	.st6{font-size:18px;}
	.st7{fill:none;stroke:#FCEE21;stroke-miterlimit:10;}
	.st8{display:none;}
	.st9{display:inline;fill:#5CFFEA;}
	.st10{display:inline;fill:#FFF400;}
	.st11{display:inline;fill:#D3FFEA;}
	.st12{display:inline;}
	.st13{fill:#FFB317;}
	.st14{font-family:'BMHANNA11yrsold';}
	.st15{font-size:24px;}
</style>
<g id="Night">
	<g>
		<circle class="st0" cx="75" cy="75" r="75"/>
	</g>
	<g>
		<path class="st1" d="M31.83,61.46c0-20.34,9.04-38.56,23.31-50.9C27.88,19.15,8.1,44.62,8.1,74.73C8.1,111.88,38.22,142,75.37,142
			c16.81,0,32.17-6.18,43.96-16.37c-6.39,2.01-13.18,3.1-20.23,3.1C61.95,128.73,31.83,98.61,31.83,61.46z"/>
	</g>
	<path class="st2" d="M87.5,52.5"/>
	<text transform="matrix(1 0 0 1 45.3467 67.9111)"><tspan x="0" y="0" class="st3 st4 st5">High-Contrast</tspan><tspan x="0" y="21.6" class="st3 st4 st6">Mode</tspan></text>
	<line class="st7" x1="46" y1="73" x2="134" y2="73"/>
</g>
<g id="Day" class="st8">
	<circle class="st9" cx="75" cy="75" r="75"/>
	<circle class="st10" cx="80.5" cy="42.5" r="19.5"/>
	<path class="st11" d="M47,45c4.55-0.22,8.3-0.13,11,0c7.61,0.38,8.81,1.23,9,2c0.2,0.78-0.6,1.59-1,2c-1.61,1.62-4.44,2.82-15,2
		c-5.17-0.4-5.95-0.8-11-1c-2.22-0.09-4.5-0.1-7,0c-4.66,0.19-7,0.29-9,1c-3.54,1.26-3.95,2.78-7,3c-2.61,0.19-4.54-0.77-5-1
		c-0.89-0.46-3.58-1.8-4-4c-0.52-2.75,2.71-5.64,5-7c3.2-1.9,6.77-2.11,19,0C35.95,42.68,41.06,43.65,47,45z"/>
	<path class="st11" d="M80,38c-10.18,3.49-12.17,5.14-12,6c0.34,1.77,9.63-0.23,25,1c11.8,0.95,18.94,3.13,32,2
		c4.45-0.39,9.95-1.19,12-5c1.03-1.9,1.3-4.76,0-6c-1.15-1.1-3.27-0.7-7,0c-1.68,0.32-3.06,0.7-4,1c0.73-0.88,2.69-3.45,2-6
		c-0.99-3.7-6.79-4.64-9-5c-7.44-1.21-13.85,1.95-18,4c-3.55,1.75-6.25,3.64-8,5C88.67,36,84.33,37,80,38z"/>
	<text transform="matrix(1 0 0 1 25.6924 88.0835)" class="st12"><tspan x="0" y="0" class="st13 st14 st15">Normal</tspan><tspan x="0" y="28.8" class="st13 st14 st15">Mode</tspan></text>
</g>
</svg>
