<?xml version="1.0" encoding="utf-8"?>
<!-- Generator: Adobe Illustrator 25.0.1, SVG Export Plug-In . SVG Version: 6.00 Build 0)  -->
<svg version="1.1" id="레이어_1" xmlns="http://www.w3.org/2000/svg" xmlns:xlink="http://www.w3.org/1999/xlink" x="0px"
	 y="0px" viewBox="0 0 150 150" style="enable-background:new 0 0 150 150;" xml:space="preserve">
<style type="text/css">
	.st0{fill:#DDDDDD;}
	.st1{fill:none;stroke:#000000;stroke-width:3;stroke-miterlimit:10;}
	.st2{fill:none;stroke:#000000;stroke-width:3;stroke-linecap:round;stroke-linejoin:round;stroke-miterlimit:10;}
</style>
<g>
	<circle class="st0" cx="75" cy="75" r="74.5"/>
	<path d="M75,1c40.8,0,74,33.2,74,74s-33.2,74-74,74S1,115.8,1,75S34.2,1,75,1 M75,0C33.58,0,0,33.58,0,75s33.58,75,75,75
		s75-33.58,75-75S116.42,0,75,0L75,0z"/>
</g>
<g>
	<polyline class="st0" points="26.5,56.5 75.2,105.2 123.88,56.53 	"/>
	<polyline class="st1" points="26.5,56.5 75.2,105.2 123.88,56.53 	"/>
	<polyline class="st0" points="26.5,56.5 75.2,105.2 123.88,56.53 	"/>
	<polyline class="st2" points="26.5,56.5 75.2,105.2 123.88,56.53 	"/>
</g>
</svg>
